<svg width="36" height="36" viewBox="0 0 36 36" fill="none" xmlns="http://www.w3.org/2000/svg">
<g id="Clip path group">

<g id="Clip path group_2">
<mask id="mask0_827_603" style="mask-type:luminance" maskUnits="userSpaceOnUse" x="6" y="6" width="24" height="24">
<g id="clip-path-79">
<path id="Rectangle 18100" d="M30 6H6V30H30V6Z" fill="white"/>
</g>
</mask>
<g mask="url(#mask0_827_603)">
<g id="Mask Group 630">
<g id="line-chart">
<g id="Group 168383">
<path id="Path 122693" d="M9.65942 22.7177V25.8452C9.65942 25.938 9.6963 26.0271 9.76194 26.0927C9.82757 26.1583 9.9166 26.1952 10.0094 26.1952H12.4274C12.5202 26.1952 12.6093 26.1583 12.6749 26.0927C12.7405 26.0271 12.7774 25.938 12.7774 25.8452V20.3452L11.0214 22.1012C10.6568 22.4645 10.173 22.6835 9.65942 22.7177Z" fill="#6E1D7C"/>
<path id="Path 122694" d="M13.9805 20.3036V25.8456C13.9805 25.9384 14.0173 26.0274 14.083 26.0931C14.1486 26.1587 14.2376 26.1956 14.3305 26.1956H16.7485C16.8413 26.1956 16.9303 26.1587 16.996 26.0931C17.0616 26.0274 17.0985 25.9384 17.0985 25.8456V22.5831C16.5516 22.5735 16.0298 22.3518 15.6435 21.9646L13.9805 20.3036Z" fill="#6E1D7C"/>
<path id="Path 122695" d="M18.3008 22.2379V25.8455C18.3008 25.9383 18.3377 26.0273 18.4033 26.0929C18.4689 26.1586 18.558 26.1954 18.6508 26.1954H21.0688C21.1616 26.1954 21.2506 26.1586 21.3163 26.0929C21.3819 26.0273 21.4188 25.9383 21.4188 25.8455V19.1895L18.6478 21.9604C18.5424 22.0651 18.426 22.1581 18.3008 22.2379Z" fill="#6E1D7C"/>
<path id="Path 122696" d="M25.5024 15.0985L22.6204 17.9805V25.845C22.6204 25.9378 22.6572 26.0269 22.7229 26.0925C22.7885 26.1581 22.8775 26.195 22.9704 26.195H25.3884C25.4812 26.195 25.5702 26.1581 25.6358 26.0925C25.7015 26.0269 25.7384 25.9378 25.7384 25.845V15.3165C25.6589 15.249 25.5999 15.1895 25.5559 15.15L25.5024 15.0985Z" fill="#6E1D7C"/>
<path id="Path 122697" d="M27.4819 9.99315C27.4143 9.9282 27.3339 9.87807 27.2458 9.84595C27.1577 9.81384 27.0639 9.80045 26.9704 9.80665H26.9069C25.7809 9.85665 24.6569 9.91365 23.5334 9.96515C23.3436 9.95453 23.1571 10.0186 23.0139 10.1436C22.9618 10.1962 22.9201 10.2581 22.8909 10.3261C22.8362 10.4466 22.8241 10.582 22.8566 10.7102C22.889 10.8384 22.9641 10.9517 23.0694 11.0316L23.3509 11.3171C23.5449 11.5171 23.7434 11.7136 23.9414 11.9076L17.1414 18.7141L14.0849 15.6576C13.9947 15.5672 13.8875 15.4954 13.7695 15.4465C13.6514 15.3975 13.5249 15.3723 13.3972 15.3723C13.2694 15.3723 13.1429 15.3975 13.0249 15.4465C12.9068 15.4954 12.7996 15.5672 12.7094 15.6576L8.6369 19.7246C8.54645 19.8149 8.47469 19.9221 8.42573 20.0401C8.37677 20.1581 8.35156 20.2846 8.35156 20.4124C8.35156 20.5402 8.37677 20.6667 8.42573 20.7847C8.47469 20.9027 8.54645 21.0099 8.6369 21.1001L8.8194 21.2826C8.90965 21.3731 9.01684 21.4449 9.13486 21.4938C9.25287 21.5428 9.37939 21.568 9.50715 21.568C9.63492 21.568 9.76144 21.5428 9.87945 21.4938C9.99747 21.4449 10.1047 21.3731 10.1949 21.2826L13.3949 18.0826L16.4514 21.1401C16.6344 21.3229 16.8825 21.4256 17.1412 21.4256C17.3998 21.4256 17.6479 21.3229 17.8309 21.1401L25.5039 13.4656L26.3719 14.3296C26.4282 14.4003 26.4984 14.4587 26.5783 14.501C26.6581 14.5433 26.7458 14.5687 26.8359 14.5756C26.9333 14.5744 27.0288 14.5485 27.1134 14.5001C27.1743 14.467 27.2303 14.4256 27.2799 14.3771C27.4189 14.2246 27.4941 14.0245 27.4899 13.8181C27.5214 13.0886 27.5574 12.3591 27.5929 11.6261L27.6429 10.5261C27.6551 10.431 27.647 10.3343 27.6193 10.2425C27.5915 10.1506 27.5447 10.0657 27.4819 9.99315Z" fill="#6E1D7C"/>
</g>
</g>
</g>
</g>
</g>
</g>
</svg>
