<svg width="36" height="36" viewBox="0 0 36 36" fill="none" xmlns="http://www.w3.org/2000/svg">
<g id="Clip path group">

<g id="Clip path group_2">
<mask id="mask0_752_74595" style="mask-type:luminance" maskUnits="userSpaceOnUse" x="6" y="6" width="24" height="24">
<g id="clip-path-77">
<path id="Rectangle 15218" d="M30 6H6V30H30V6Z" fill="white"/>
</g>
</mask>
<g mask="url(#mask0_752_74595)">
<g id="Mask Group 833">
<g id="school-supplies">
<path id="Path 122709" d="M12.4597 16.0827C13.3207 18.9407 15.5857 20.7992 17.5192 20.2327C17.6869 20.1831 17.8489 20.1161 18.0027 20.0327C18.1564 20.1161 18.3184 20.1831 18.4862 20.2327C20.4197 20.7982 22.6862 18.9397 23.5457 16.0827C24.4052 13.2257 23.3427 11.0942 21.4092 10.5292C20.9717 10.3998 20.5121 10.3633 20.0597 10.4219C19.6073 10.4806 19.1722 10.6331 18.7822 10.8697C18.9919 10.374 19.2916 9.92133 19.6662 9.53469L18.8887 8.79419C18.2587 9.43906 17.8068 10.2364 17.5772 11.1082C17.1622 10.7812 16.6752 10.558 16.1566 10.4573C15.638 10.3565 15.1029 10.381 14.5957 10.5287C12.6622 11.0942 11.5987 13.2247 12.4597 16.0827ZM20.7532 12.1442C21.0041 12.2153 21.2382 12.336 21.4417 12.4992C21.6451 12.6623 21.8138 12.8647 21.9377 13.0942C22.0987 13.4302 22.1915 13.7949 22.2107 14.167C22.2298 14.5392 22.1749 14.9114 22.0492 15.2622L21.2787 15.0262C21.4678 14.5233 21.4498 13.9659 21.2287 13.4762C21.156 13.3404 21.0565 13.2208 20.9362 13.1247C20.8158 13.0286 20.6772 12.958 20.5287 12.9172L20.7532 12.1442Z" fill="#F99206"/>
<path id="Path 122710" d="M11.2974 21.2512H13.4424V27.2052H11.2974V21.2512Z" fill="#F99206"/>
<path id="Path 122711" d="M7.2627 21.2512H10.4927V27.2052H7.2627V21.2512Z" fill="#F99206"/>
<path id="Path 122712" d="M14.2495 27.2047H28.7415V21.2507H14.2495V27.2047ZM20.1495 23.0577H26.6595V25.3977H20.149L20.1495 23.0577Z" fill="#F99206"/>
</g>
</g>
</g>
</g>
</g>
</svg>
