<svg width="36" height="36" viewBox="0 0 36 36" fill="none" xmlns="http://www.w3.org/2000/svg">
<g id="Clip path group">

<g id="Clip path group_2">
<mask id="mask0_752_74579" style="mask-type:luminance" maskUnits="userSpaceOnUse" x="6" y="6" width="24" height="24">
<g id="clip-path-83">
<path id="Rectangle 15218" d="M30 6H6V30H30V6Z" fill="white"/>
</g>
</mask>
<g mask="url(#mask0_752_74579)">
<g id="Mask Group 34">
<g id="engineering">
<path id="Path 122698" d="M10.8008 17.7047V18.2099C10.8012 18.3194 10.8372 18.4258 10.9033 18.513C10.9694 18.6002 11.0621 18.6636 11.1674 18.6937C13.5192 19.3308 15.9405 19.6765 18.3767 19.723C20.8129 19.6765 23.2342 19.3308 25.5861 18.6937C25.6913 18.6636 25.784 18.6002 25.8501 18.513C25.9162 18.4258 25.9522 18.3194 25.9527 18.2099V17.7047C25.9527 17.6383 25.9397 17.5726 25.9143 17.5113C25.889 17.4499 25.8518 17.3942 25.8048 17.3473C25.7579 17.3004 25.7022 17.2631 25.6409 17.2378C25.5795 17.2124 25.5138 17.1994 25.4474 17.1995H11.306C11.2397 17.1994 11.1739 17.2124 11.1126 17.2378C11.0513 17.2631 10.9955 17.3004 10.9486 17.3473C10.9017 17.3942 10.8645 17.4499 10.8391 17.5113C10.8137 17.5726 10.8007 17.6383 10.8008 17.7047Z" fill="#9BB109"/>
<path id="Path 122699" d="M24.4373 21.7448C24.5037 21.7448 24.5694 21.7318 24.6307 21.7064C24.6921 21.6811 24.7478 21.6439 24.7947 21.5969C24.8416 21.55 24.8789 21.4943 24.9042 21.4329C24.9296 21.3716 24.9426 21.3059 24.9425 21.2395V19.9006C24.2255 20.0699 23.1457 20.2962 21.8874 20.4714C21.829 21.3629 21.4337 22.1987 20.7818 22.8094C20.1298 23.4201 19.2699 23.7599 18.3765 23.7599C17.4832 23.7599 16.6233 23.4201 15.9713 22.8094C15.3193 22.1987 14.924 21.3629 14.8656 20.4714C13.6074 20.2962 12.5281 20.0694 11.8105 19.9006V21.2395C11.8105 21.3059 11.8235 21.3716 11.8489 21.4329C11.8742 21.4943 11.9114 21.55 11.9584 21.5969C12.0053 21.6439 12.061 21.6811 12.1224 21.7064C12.1837 21.7318 12.2494 21.7448 12.3158 21.7448H13.0333C13.1515 22.1595 13.3184 22.5588 13.5305 22.9342L13.021 23.4438C12.974 23.4906 12.9368 23.5463 12.9114 23.6076C12.886 23.6689 12.8729 23.7346 12.8729 23.8009C12.8729 23.8673 12.886 23.933 12.9114 23.9943C12.9368 24.0556 12.974 24.1112 13.021 24.1581L14.4496 25.5867C14.4965 25.6337 14.5522 25.6709 14.6135 25.6964C14.6748 25.7218 14.7404 25.7349 14.8068 25.7349C14.8731 25.7349 14.9388 25.7218 15.0001 25.6964C15.0614 25.6709 15.1171 25.6337 15.164 25.5867L15.6735 25.0772C16.049 25.2893 16.4482 25.4562 16.863 25.5744V26.3269C16.8629 26.3932 16.8759 26.459 16.9013 26.5203C16.9266 26.5816 16.9639 26.6374 17.0108 26.6843C17.0577 26.7312 17.1134 26.7684 17.1748 26.7938C17.2361 26.8192 17.3018 26.8322 17.3682 26.8321H19.3865C19.4529 26.8322 19.5186 26.8192 19.5799 26.7938C19.6412 26.7684 19.697 26.7312 19.7439 26.6843C19.7908 26.6374 19.828 26.5816 19.8534 26.5203C19.8788 26.459 19.8918 26.3932 19.8917 26.3269V25.5744C20.3065 25.4562 20.7057 25.2893 21.0812 25.0772L21.5907 25.5867C21.6376 25.6337 21.6933 25.6709 21.7546 25.6964C21.8159 25.7218 21.8816 25.7349 21.9479 25.7349C22.0142 25.7349 22.0799 25.7218 22.1412 25.6964C22.2025 25.6709 22.2582 25.6337 22.3051 25.5867L23.7337 24.1581C23.7807 24.1112 23.8179 24.0556 23.8433 23.9943C23.8687 23.933 23.8818 23.8673 23.8818 23.8009C23.8818 23.7346 23.8687 23.6689 23.8433 23.6076C23.8179 23.5463 23.7807 23.4906 23.7337 23.4438L23.2242 22.9342C23.4363 22.5588 23.6032 22.1595 23.7214 21.7448H24.4373Z" fill="#9BB109"/>
<path id="Path 122700" d="M17.5749 15.1343C17.5145 15.1615 17.4493 15.1766 17.383 15.1787C17.3168 15.1807 17.2508 15.1697 17.1888 15.1462C17.1268 15.1228 17.07 15.0873 17.0217 15.0419C16.9734 14.9966 16.9346 14.9421 16.9073 14.8817L15.3308 11.352C14.4241 11.8372 13.6427 12.527 13.0488 13.3667C12.4549 14.2063 12.0647 15.1727 11.9092 16.1894H24.8461C24.6905 15.1727 24.3003 14.2063 23.7064 13.3667C23.1125 12.527 22.3312 11.8372 21.4244 11.352L19.8479 14.8817C19.7928 15.0037 19.6915 15.0988 19.5663 15.1462C19.441 15.1935 19.3021 15.1891 19.1801 15.134C19.0581 15.0789 18.9629 14.9776 18.9156 14.8524C18.8683 14.7271 18.8726 14.5882 18.9277 14.4662L20.673 10.5624C20.7036 10.4965 20.7196 10.4249 20.7201 10.3523C20.7206 10.2796 20.7055 10.2078 20.6757 10.1415C20.646 10.0753 20.6024 10.0162 20.5479 9.96822C20.4933 9.92028 20.4291 9.88462 20.3596 9.86365C19.0618 9.51225 17.6939 9.51225 16.3962 9.86365C16.3266 9.88462 16.2624 9.92028 16.2079 9.96822C16.1533 10.0162 16.1097 10.0753 16.08 10.1415C16.0503 10.2078 16.0352 10.2796 16.0357 10.3523C16.0361 10.4249 16.0522 10.4965 16.0828 10.5624L17.828 14.4662C17.8554 14.5266 17.8705 14.5918 17.8726 14.6581C17.8747 14.7243 17.8637 14.7904 17.8402 14.8524C17.8167 14.9144 17.7813 14.9711 17.7358 15.0194C17.6904 15.0677 17.6359 15.1066 17.5754 15.1338L17.5749 15.1343Z" fill="#9BB109"/>
</g>
</g>
</g>
</g>
</g>
</svg>
