<svg width="36" height="36" viewBox="0 0 36 36" fill="none" xmlns="http://www.w3.org/2000/svg">
<g id="Clip path group">

<g id="Clip path group_2">
<mask id="mask0_827_570" style="mask-type:luminance" maskUnits="userSpaceOnUse" x="6" y="6" width="24" height="24">
<g id="clip-path-74">
<path id="Rectangle 17573" d="M30 6H6V30H30V6Z" fill="white"/>
</g>
</mask>
<g mask="url(#mask0_827_570)">
<g id="Clip path group_3">
<mask id="mask1_827_570" style="mask-type:luminance" maskUnits="userSpaceOnUse" x="6" y="6" width="24" height="24">
<g id="clip-path-75">
<path id="Rectangle 17573_2" d="M30 6H6V30H30V6Z" fill="white"/>
</g>
</mask>
<g mask="url(#mask1_827_570)">
<g id="Mask Group 587">
<path id="heart-attack" d="M26.726 14.306C26.4592 13.2253 25.8505 12.2598 24.9905 11.553C24.1836 10.883 23.1707 10.5112 22.122 10.5C21.3407 10.5001 20.5746 10.7162 19.9085 11.1245C19.3428 11.472 18.8475 11.9228 18.4485 12.4535C18.0339 11.8618 17.4853 11.3765 16.8476 11.037C16.2098 10.6976 15.5009 10.5135 14.7785 10.5C13.7301 10.5113 12.7176 10.8831 11.911 11.553C11.0513 12.2598 10.4427 13.2254 10.176 14.306C9.9083 15.3994 9.94531 16.5452 10.283 17.619H12.841L13.765 15.769C13.8061 15.6868 13.8693 15.6176 13.9475 15.5693C14.0257 15.521 14.1158 15.4954 14.2078 15.4954C14.2997 15.4954 14.3898 15.521 14.468 15.5693C14.5462 15.6176 14.6094 15.6868 14.6505 15.769L16.329 19.126L18.0075 15.769C18.0486 15.6868 18.1118 15.6176 18.19 15.5693C18.2682 15.521 18.3583 15.4954 18.4503 15.4954C18.5422 15.4954 18.6323 15.521 18.7105 15.5693C18.7887 15.6176 18.8519 15.6868 18.893 15.769L19.817 17.619H23.267C23.3984 17.619 23.5243 17.6712 23.6172 17.7641C23.7101 17.8569 23.7623 17.9829 23.7623 18.1142C23.7623 18.2456 23.7101 18.3716 23.6172 18.4644C23.5243 18.5573 23.3984 18.6095 23.267 18.6095H19.512C19.42 18.6095 19.3298 18.5838 19.2516 18.5354C19.1734 18.487 19.1101 18.4178 19.069 18.3355L18.4485 17.1L16.77 20.457C16.7289 20.5392 16.6657 20.6084 16.5875 20.6567C16.5093 20.705 16.4192 20.7306 16.3273 20.7306C16.2353 20.7306 16.1452 20.705 16.067 20.6567C15.9888 20.6084 15.9256 20.5392 15.8845 20.457L14.208 17.1L13.59 18.3355C13.5488 18.4177 13.4856 18.4868 13.4073 18.5351C13.3291 18.5834 13.239 18.609 13.147 18.609H10.6535C10.8317 19.0029 11.0367 19.3841 11.267 19.75C12.617 21.9 14.952 23.8915 18.212 25.67C18.2847 25.7096 18.3662 25.7304 18.449 25.7304C18.5318 25.7304 18.6133 25.7096 18.686 25.67C21.9475 23.891 24.286 21.8995 25.636 19.75C27.091 17.425 27.032 15.5065 26.726 14.306Z" fill="#008E42"/>
</g>
</g>
</g>
</g>
</g>
</g>
</svg>
