<svg width="36" height="36" viewBox="0 0 36 36" fill="none" xmlns="http://www.w3.org/2000/svg">
<g id="Clip path group">

<g id="Clip path group_2">
<mask id="mask0_827_645" style="mask-type:luminance" maskUnits="userSpaceOnUse" x="6" y="6" width="24" height="24">
<g id="clip-path-74">
<path id="Rectangle 17573" d="M30 6H6V30H30V6Z" fill="white"/>
</g>
</mask>
<g mask="url(#mask0_827_645)">
<g id="Mask Group 162590">
<path id="cloud-server" d="M22.7948 21.1175C23.6153 21.1177 24.4076 20.8173 25.0218 20.2731C25.6359 19.7289 26.0294 18.9785 26.1279 18.1639C26.2264 17.3492 26.0231 16.5267 25.5563 15.8518C25.0896 15.1769 24.3918 14.6963 23.5948 14.501C23.5829 13.6727 23.3138 12.8685 22.8246 12.2C22.3354 11.5314 21.6504 11.0316 20.8645 10.7697C20.0785 10.5078 19.2306 10.4969 18.4382 10.7384C17.6458 10.9798 16.9481 11.4618 16.4418 12.1175C15.9315 11.8978 15.3747 11.8085 14.8214 11.8576C14.2681 11.9067 13.7356 12.0926 13.272 12.3985C12.8084 12.7045 12.4281 13.121 12.1654 13.6104C11.9028 14.0999 11.7659 14.647 11.7673 15.2025C11.7674 15.3992 11.7851 15.5954 11.8203 15.789C11.1888 15.9675 10.6435 16.3687 10.2849 16.9183C9.92641 17.4678 9.77901 18.1286 9.86998 18.7785C9.96096 19.4283 10.2842 20.0232 10.7798 20.4532C11.2755 20.8832 11.9101 21.1192 12.5663 21.1175H14.9638V24.1405L13.6993 24.111C13.4907 23.8437 13.1943 23.6587 12.8625 23.5887C12.5307 23.5188 12.1849 23.5684 11.8861 23.7287C11.5874 23.8891 11.3549 24.1499 11.2299 24.4651C11.1048 24.7802 11.0951 25.1294 11.2026 25.451C11.3101 25.7726 11.5278 26.0458 11.8173 26.2225C12.1067 26.3991 12.4493 26.4677 12.7844 26.4161C13.1195 26.3646 13.4257 26.1963 13.6487 25.9409C13.8717 25.6855 13.9973 25.3595 14.0033 25.0205L15.6093 25.0175C15.7043 24.9792 15.7852 24.9127 15.8412 24.827C15.8972 24.7412 15.9255 24.6403 15.9223 24.538V21.1175H17.5223V25.6405C17.2023 25.7536 16.9327 25.9762 16.761 26.2688C16.5893 26.5615 16.5266 26.9055 16.584 27.24C16.6414 27.5744 16.8151 27.8778 17.0746 28.0965C17.334 28.3152 17.6624 28.4352 18.0018 28.4352C18.3411 28.4352 18.6695 28.3152 18.9289 28.0965C19.1884 27.8778 19.3622 27.5744 19.4195 27.24C19.4769 26.9055 19.4142 26.5615 19.2425 26.2688C19.0708 25.9762 18.8012 25.7536 18.4813 25.6405V21.1175H20.0813V24.5375C20.0874 24.6447 20.1249 24.7477 20.1889 24.8339C20.253 24.9201 20.3409 24.9857 20.4418 25.0225H21.9998C22.0055 25.3622 22.1311 25.6889 22.3545 25.9449C22.5779 26.2009 22.8845 26.3697 23.2203 26.4214C23.5561 26.4731 23.8993 26.4044 24.1894 26.2275C24.4794 26.0506 24.6976 25.7769 24.8053 25.4547C24.913 25.1324 24.9033 24.7825 24.7779 24.4668C24.6525 24.151 24.4196 23.8898 24.1202 23.7292C23.8208 23.5686 23.4743 23.519 23.1419 23.5893C22.8095 23.6595 22.5126 23.845 22.3038 24.113H21.0368V21.1175H22.7948ZM12.5663 25.474C12.4714 25.474 12.3787 25.4459 12.2999 25.3932C12.221 25.3405 12.1595 25.2656 12.1233 25.178C12.087 25.0904 12.0775 24.9939 12.096 24.9009C12.1145 24.8079 12.1601 24.7225 12.2272 24.6554C12.2943 24.5884 12.3797 24.5427 12.4727 24.5242C12.5657 24.5057 12.6621 24.5152 12.7498 24.5515C12.8374 24.5878 12.9123 24.6492 12.9649 24.7281C13.0176 24.8069 13.0458 24.8996 13.0458 24.9945C13.0458 25.1216 12.9952 25.2436 12.9053 25.3335C12.8154 25.4235 12.6934 25.474 12.5663 25.474ZM18.0003 27.474C17.9054 27.474 17.8127 27.4459 17.7339 27.3932C17.655 27.3405 17.5935 27.2656 17.5573 27.178C17.521 27.0904 17.5115 26.9939 17.53 26.9009C17.5485 26.8079 17.5941 26.7225 17.6612 26.6554C17.7283 26.5884 17.8137 26.5427 17.9067 26.5242C17.9997 26.5057 18.0961 26.5152 18.1838 26.5515C18.2714 26.5878 18.3463 26.6492 18.3989 26.7281C18.4516 26.8069 18.4798 26.8996 18.4798 26.9945C18.4798 27.0575 18.4673 27.12 18.4432 27.1782C18.419 27.2364 18.3836 27.2893 18.339 27.3339C18.2943 27.3784 18.2414 27.4137 18.1831 27.4378C18.1248 27.4618 18.0623 27.4741 17.9993 27.474H18.0003ZM23.4338 24.5175C23.5286 24.5175 23.6213 24.5456 23.7002 24.5983C23.779 24.651 23.8405 24.7259 23.8768 24.8135C23.913 24.9011 23.9225 24.9975 23.904 25.0905C23.8855 25.1835 23.8399 25.269 23.7728 25.336C23.7058 25.4031 23.6203 25.4488 23.5273 25.4673C23.4343 25.4858 23.3379 25.4763 23.2503 25.44C23.1626 25.4037 23.0878 25.3422 23.0351 25.2634C22.9824 25.1845 22.9543 25.0918 22.9543 24.997C22.9543 24.8698 23.0048 24.7478 23.0947 24.6579C23.1846 24.568 23.3066 24.5175 23.4338 24.5175Z" fill="#007DAC"/>
</g>
</g>
</g>
</g>
</svg>
