<svg width="36" height="36" viewBox="0 0 36 36" fill="none" xmlns="http://www.w3.org/2000/svg">
<g id="Clip path group">

<g id="Clip path group_2">
<mask id="mask0_827_586" style="mask-type:luminance" maskUnits="userSpaceOnUse" x="6" y="6" width="24" height="24">
<g id="clip-path-78">
<path id="Rectangle 15218" d="M30 6H6V30H30V6Z" fill="white"/>
</g>
</mask>
<g mask="url(#mask0_827_586)">
<g id="Mask Group 830">
<g id="translate">
<path id="Path 122684" d="M25.7733 16.1752H18.3108C17.7448 16.1758 17.2021 16.401 16.8018 16.8012C16.4016 17.2015 16.1765 17.7441 16.1758 18.3102V22.3647L14.2423 23.7457C14.167 23.7994 14.1057 23.8703 14.0634 23.9524C14.0211 24.0346 13.999 24.1257 13.999 24.2182C13.999 24.3106 14.0211 24.4017 14.0634 24.4839C14.1057 24.5661 14.167 24.637 14.2423 24.6907L16.1993 26.0907C16.2755 26.5965 16.5304 27.0582 16.9179 27.3922C17.3054 27.7261 17.7998 27.91 18.3113 27.9107H25.7738C26.3399 27.91 26.8826 27.6848 27.2829 27.2844C27.6832 26.8841 27.9083 26.3413 27.9088 25.7752V18.3107C27.9083 17.7445 27.6831 17.2016 27.2827 16.8012C26.8824 16.4009 26.3395 16.1757 25.7733 16.1752ZM23.2638 24.3337C23.1268 24.3337 23.0213 24.2902 22.9903 24.1722L22.7538 23.3452H21.3303L21.0943 24.1722C21.0633 24.2907 20.9573 24.3337 20.8208 24.3337C20.6033 24.3337 20.3108 24.1972 20.3108 23.9982C20.3131 23.977 20.3173 23.9561 20.3233 23.9357L21.5233 20.0237C21.5704 19.9302 21.6453 19.8537 21.7377 19.8046C21.8301 19.7555 21.9355 19.7363 22.0393 19.7497C22.2758 19.7497 22.5058 19.8367 22.5618 20.0237L23.7618 23.9357C23.7684 23.9559 23.7726 23.9769 23.7743 23.9982C23.7738 24.1917 23.4803 24.3337 23.2638 24.3337Z" fill="#D8B200"/>
<path id="Path 122685" d="M21.4966 22.7117H22.5791L22.0376 20.8027L21.4966 22.7117Z" fill="#D8B200"/>
<path id="Path 122686" d="M15.0141 18.3107C15.0134 17.5607 15.2698 16.8331 15.7406 16.2492C15.1029 16.2499 14.4804 16.055 13.9571 15.6907C13.4337 16.0555 12.811 16.2508 12.1731 16.2502C12.0862 16.2502 12.0029 16.2157 11.9415 16.1543C11.8801 16.0929 11.8456 16.0096 11.8456 15.9227C11.8456 15.8358 11.8801 15.7525 11.9415 15.6911C12.0029 15.6297 12.0862 15.5952 12.1731 15.5952C12.6203 15.5959 13.0593 15.4749 13.4431 15.2452C12.9825 14.7497 12.6952 14.118 12.6246 13.4452H12.1746C12.1316 13.4452 12.089 13.4367 12.0492 13.4203C12.0095 13.4038 11.9734 13.3797 11.943 13.3493C11.9126 13.3189 11.8885 13.2828 11.872 13.243C11.8555 13.2033 11.8471 13.1607 11.8471 13.1177C11.8471 13.0747 11.8555 13.0321 11.872 12.9924C11.8885 12.9526 11.9126 12.9165 11.943 12.8861C11.9734 12.8557 12.0095 12.8316 12.0492 12.8151C12.089 12.7987 12.1316 12.7902 12.1746 12.7902H13.6311V11.9907C13.6294 11.9466 13.6365 11.9027 13.6522 11.8615C13.6679 11.8203 13.6917 11.7827 13.7223 11.7509C13.7528 11.7191 13.7895 11.6938 13.83 11.6766C13.8706 11.6593 13.9142 11.6504 13.9583 11.6504C14.0024 11.6504 14.046 11.6593 14.0866 11.6766C14.1272 11.6938 14.1638 11.7191 14.1944 11.7509C14.2249 11.7827 14.2488 11.8203 14.2644 11.8615C14.2801 11.9027 14.2873 11.9466 14.2856 11.9907V12.7857H15.7406C15.8274 12.7857 15.9107 12.8202 15.9722 12.8816C16.0336 12.943 16.0681 13.0263 16.0681 13.1132C16.0681 13.2001 16.0336 13.2834 15.9722 13.3448C15.9107 13.4062 15.8274 13.4407 15.7406 13.4407H15.2906C15.2199 14.1135 14.9327 14.7452 14.4721 15.2407C14.8557 15.4706 15.2948 15.5916 15.7421 15.5907C15.8248 15.5907 15.9045 15.6221 15.9651 15.6785C16.0257 15.7349 16.0626 15.8121 16.0686 15.8947C16.6773 15.3262 17.4792 15.0102 18.3121 15.0107H19.8251V13.6307L21.7586 12.2497C21.8337 12.1959 21.895 12.125 21.9372 12.0428C21.9794 11.9607 22.0015 11.8696 22.0015 11.7772C22.0015 11.6848 21.9794 11.5937 21.9372 11.5116C21.895 11.4294 21.8337 11.3585 21.7586 11.3047L19.8006 9.9107C19.7243 9.40527 19.4696 8.94384 19.0826 8.60999C18.6955 8.27613 18.2017 8.09191 17.6906 8.0907H10.2261C9.65996 8.09123 9.11717 8.31632 8.71681 8.71658C8.31646 9.11684 8.09124 9.65958 8.09058 10.2257V17.6907C8.09124 18.2568 8.31646 18.7996 8.71681 19.1998C9.11717 19.6001 9.65996 19.8252 10.2261 19.8257H15.0141V18.3107Z" fill="#D8B200"/>
<path id="Path 122687" d="M13.9567 14.8341C14.3239 14.4543 14.5598 13.9668 14.6297 13.4431H13.2842C13.3541 13.9667 13.5898 14.4541 13.9567 14.8341Z" fill="#D8B200"/>
</g>
</g>
</g>
</g>
</g>
</svg>
