<svg width="36" height="36" viewBox="0 0 36 36" fill="none" xmlns="http://www.w3.org/2000/svg">
<g id="Clip path group">

<g id="Clip path group_2">
<mask id="mask0_827_622" style="mask-type:luminance" maskUnits="userSpaceOnUse" x="6" y="6" width="24" height="24">
<g id="clip-path-79">
<path id="Rectangle 18100" d="M30 6H6V30H30V6Z" fill="white"/>
</g>
</mask>
<g mask="url(#mask0_827_622)">
<g id="Mask Group 630">
<g id="team-leader">
<g id="Team_Leader_1_">
<g id="Group 168386">
<path id="Path 122713" d="M12.4719 15.536C12.0764 15.536 11.6897 15.4187 11.3608 15.199C11.0319 14.9792 10.7755 14.6668 10.6242 14.3014C10.4728 13.9359 10.4332 13.5338 10.5104 13.1458C10.5875 12.7579 10.778 12.4015 11.0577 12.1218C11.3374 11.8421 11.6938 11.6516 12.0817 11.5744C12.4697 11.4973 12.8718 11.5369 13.2373 11.6883C13.6027 11.8396 13.9151 12.096 14.1349 12.4249C14.3546 12.7538 14.4719 13.1404 14.4719 13.536C14.4719 14.0664 14.2612 14.5752 13.8861 14.9502C13.5111 15.3253 13.0024 15.536 12.4719 15.536Z" fill="#AC1E2D"/>
</g>
<g id="Group 168387">
<path id="Path 122714" d="M23.5261 15.536C23.1306 15.536 22.7439 15.4187 22.415 15.199C22.0861 14.9792 21.8297 14.6668 21.6784 14.3014C21.527 13.9359 21.4874 13.5338 21.5646 13.1458C21.6417 12.7579 21.8322 12.4015 22.1119 12.1218C22.3916 11.8421 22.748 11.6516 23.1359 11.5744C23.5239 11.4973 23.926 11.5369 24.2915 11.6883C24.6569 11.8396 24.9693 12.096 25.1891 12.4249C25.4088 12.7538 25.5261 13.1404 25.5261 13.536C25.5261 14.0664 25.3154 14.5752 24.9403 14.9502C24.5653 15.3253 24.0566 15.536 23.5261 15.536Z" fill="#AC1E2D"/>
</g>
<g id="Group 168388">
<path id="Path 122715" d="M17.9968 14.4707C17.5028 14.4707 17.0199 14.3242 16.6092 14.0498C16.1985 13.7754 15.8784 13.3853 15.6894 12.929C15.5003 12.4726 15.4509 11.9704 15.5473 11.486C15.6436 11.0015 15.8815 10.5565 16.2308 10.2072C16.58 9.85793 17.0251 9.62006 17.5095 9.5237C17.994 9.42733 18.4962 9.47679 18.9525 9.66582C19.4089 9.85485 19.7989 10.175 20.0734 10.5857C20.3478 10.9964 20.4943 11.4793 20.4943 11.9732C20.4936 12.6354 20.2303 13.2702 19.762 13.7385C19.2938 14.2067 18.6589 14.47 17.9968 14.4707Z" fill="#AC1E2D"/>
</g>
<path id="Path 122716" d="M18.4967 14.521V17.967C18.4967 18.0996 18.4441 18.2268 18.3503 18.3205C18.2565 18.4143 18.1293 18.467 17.9967 18.467C17.8641 18.467 17.7369 18.4143 17.6432 18.3205C17.5494 18.2268 17.4967 18.0996 17.4967 17.967V14.521C16.6668 14.64 15.9074 15.0536 15.3573 15.6863C14.8072 16.319 14.5032 17.1286 14.5007 17.967V20.963C14.5007 21.0956 14.5534 21.2228 14.6472 21.3165C14.7409 21.4103 14.8681 21.463 15.0007 21.463H16.1197L16.5012 26.067C16.5119 26.1921 16.5693 26.3086 16.6619 26.3934C16.7545 26.4781 16.8757 26.5249 17.0012 26.5245H19.0012C19.1268 26.5249 19.2479 26.4781 19.3406 26.3934C19.4332 26.3086 19.4906 26.1921 19.5012 26.067L19.8827 21.463H21.0017C21.1343 21.463 21.2615 21.4103 21.3553 21.3165C21.4491 21.2228 21.5017 21.0956 21.5017 20.963V17.966C21.4987 17.1264 21.1933 16.316 20.6414 15.6833C20.0895 15.0506 19.3281 14.638 18.4967 14.521Z" fill="#AC1E2D"/>
</g>
<path id="Path 122717" d="M13.4691 21.0305V18.0335C13.4742 17.3123 13.6549 16.6032 13.9956 15.9675C13.5357 15.6879 13.0084 15.5387 12.4701 15.536C11.6755 15.5368 10.9137 15.8528 10.3518 16.4147C9.78995 16.9766 9.47394 17.7384 9.47314 18.533V21.0305C9.47314 21.1631 9.52582 21.2903 9.61959 21.3841C9.71336 21.4778 9.84054 21.5305 9.97314 21.5305H10.5196L10.9731 26.075C10.9855 26.1983 11.0432 26.3125 11.135 26.3957C11.2269 26.4788 11.3463 26.5249 11.4701 26.525H13.4701C13.594 26.5249 13.7134 26.4788 13.8052 26.3957C13.8971 26.3125 13.9548 26.1983 13.9671 26.075L14.3361 22.384C14.0781 22.2641 13.8595 22.073 13.7062 21.8333C13.5528 21.5936 13.4709 21.3151 13.4701 21.0305H13.4691Z" fill="#AC1E2D"/>
<path id="Path 122718" d="M26.5226 18.533C26.5218 17.7384 26.2058 16.9766 25.644 16.4147C25.0821 15.8528 24.3203 15.5368 23.5257 15.536C22.9874 15.5387 22.4601 15.6879 22.0002 15.9675C22.3409 16.6032 22.5216 17.3123 22.5266 18.0335V21.0305C22.5259 21.3151 22.444 21.5936 22.2906 21.8333C22.1373 22.073 21.9187 22.2641 21.6606 22.384L22.0296 26.075C22.042 26.1983 22.0997 26.3125 22.1915 26.3957C22.2834 26.4788 22.4028 26.5249 22.5266 26.525H24.5266C24.6505 26.5249 24.7699 26.4788 24.8618 26.3957C24.9536 26.3125 25.0113 26.1983 25.0237 26.075L25.4781 21.53H26.0251C26.1578 21.53 26.2849 21.4773 26.3787 21.3836C26.4725 21.2898 26.5251 21.1626 26.5251 21.03L26.5226 18.533Z" fill="#AC1E2D"/>
</g>
</g>
</g>
</g>
</g>
</svg>
