<svg width="36" height="36" viewBox="0 0 36 36" fill="none" xmlns="http://www.w3.org/2000/svg">
<g id="Clip path group">

<g id="Clip path group_2">
<mask id="mask0_827_534" style="mask-type:luminance" maskUnits="userSpaceOnUse" x="6" y="6" width="24" height="24">
<g id="clip-path-82">
<path id="Rectangle 18098" d="M30 6H6V30H30V6Z" fill="white"/>
</g>
</mask>
<g mask="url(#mask0_827_534)">
<g id="Mask Group 628">
<g id="55-Megaphone">
<path id="Path 122728" d="M13.0402 20.2078V12.2511H11.7142C10.835 12.2511 9.99182 12.6004 9.37013 13.2221C8.74843 13.8437 8.39917 14.6869 8.39917 15.5661V16.8922C8.39917 17.7714 8.74843 18.6146 9.37013 19.2363C9.99182 19.858 10.835 20.2072 11.7142 20.2072L13.0402 20.2078Z" fill="#C9187E"/>
<path id="Path 122729" d="M20.5874 9.65195C20.4667 9.6011 20.3336 9.58716 20.2049 9.6119C20.0762 9.63664 19.9578 9.69895 19.8645 9.79095C19.8645 9.79095 17.3584 12.2511 14.3679 12.2511V20.2078C17.3584 20.2078 19.8447 22.6411 19.8645 22.6679C19.9578 22.7601 20.0761 22.8227 20.2048 22.8479C20.3335 22.873 20.4668 22.8597 20.5879 22.8094C20.709 22.7592 20.8126 22.6743 20.8856 22.5654C20.9587 22.4565 20.998 22.3285 20.9986 22.1974V10.262C20.998 10.1311 20.9586 10.0033 20.8854 9.89473C20.8122 9.78616 20.7085 9.70168 20.5874 9.65195Z" fill="#C9187E"/>
<path id="Path 122730" d="M14.8888 21.5737C14.7156 21.5471 14.5406 21.5339 14.3654 21.5342H11.7128C11.4211 21.5359 11.1301 21.5068 10.8445 21.4475L11.7128 25.008C11.7491 25.1551 11.8347 25.2852 11.9554 25.3769C12.076 25.4685 12.2244 25.5161 12.3758 25.5116H15.0278C15.1288 25.5126 15.2286 25.4904 15.3195 25.4466C15.4105 25.4028 15.4902 25.3387 15.5523 25.2592C15.6145 25.1796 15.6576 25.0869 15.6782 24.9881C15.6988 24.8892 15.6963 24.787 15.6711 24.6893L14.8888 21.5737Z" fill="#C9187E"/>
<path id="Path 122731" d="M22.3223 14.3594V18.099C22.7063 17.9597 23.0382 17.7055 23.2727 17.3709C23.5072 17.0364 23.633 16.6377 23.633 16.2292C23.633 15.8206 23.5072 15.422 23.2727 15.0874C23.0382 14.7529 22.7063 14.4987 22.3223 14.3594Z" fill="#C9187E"/>
<path id="Path 122732" d="M24.9762 16.8924H26.3023C26.4781 16.8924 26.6467 16.8226 26.7711 16.6982C26.8954 16.5739 26.9653 16.4053 26.9653 16.2294C26.9653 16.0536 26.8954 15.8849 26.7711 15.7606C26.6467 15.6363 26.4781 15.5664 26.3023 15.5664H24.9762C24.8004 15.5664 24.6318 15.6363 24.5074 15.7606C24.3831 15.8849 24.3132 16.0536 24.3132 16.2294C24.3132 16.4053 24.3831 16.5739 24.5074 16.6982C24.6318 16.8226 24.8004 16.8924 24.9762 16.8924Z" fill="#C9187E"/>
<path id="Path 122733" d="M24.9746 14.2399C25.0786 14.2412 25.1812 14.2162 25.2729 14.1672L26.599 13.5042C26.6828 13.4689 26.7584 13.4167 26.8212 13.351C26.8839 13.2852 26.9325 13.2072 26.9639 13.1218C26.9952 13.0365 27.0087 12.9456 27.0034 12.8548C26.9981 12.764 26.9742 12.6753 26.9332 12.5942C26.8922 12.513 26.8349 12.4412 26.765 12.3831C26.695 12.325 26.6139 12.2819 26.5265 12.2566C26.4392 12.2312 26.3476 12.224 26.2574 12.2356C26.1672 12.2471 26.0804 12.2771 26.0023 12.3236L24.6762 12.9866C24.5435 13.0539 24.4372 13.1639 24.3747 13.2989C24.3121 13.4339 24.2968 13.5861 24.3312 13.7309C24.3657 13.8757 24.4479 14.0046 24.5646 14.097C24.6814 14.1893 24.8258 14.2397 24.9746 14.2399Z" fill="#C9187E"/>
<path id="Path 122734" d="M26.5991 18.9542L25.273 18.2912C25.1949 18.2441 25.1079 18.2136 25.0175 18.2016C24.927 18.1897 24.8351 18.1965 24.7474 18.2217C24.6597 18.2469 24.5782 18.29 24.5079 18.3481C24.4376 18.4063 24.3801 18.4783 24.3389 18.5597C24.2978 18.6412 24.2738 18.7302 24.2686 18.8213C24.2635 18.9124 24.2771 19.0035 24.3088 19.0891C24.3405 19.1747 24.3895 19.2528 24.4527 19.3185C24.5159 19.3843 24.5921 19.4363 24.6763 19.4713L26.0024 20.1343C26.0941 20.1833 26.1967 20.2083 26.3007 20.207C26.4495 20.2067 26.594 20.1564 26.7107 20.064C26.8274 19.9717 26.9096 19.8427 26.9441 19.6979C26.9785 19.5532 26.9632 19.401 26.9006 19.266C26.8381 19.1309 26.7318 19.0209 26.5991 18.9536V18.9542Z" fill="#C9187E"/>
</g>
</g>
</g>
</g>
</g>
</svg>
