<svg width="36" height="36" viewBox="0 0 36 36" fill="none" xmlns="http://www.w3.org/2000/svg">
<g id="Clip path group">

<g id="Clip path group_2">
<mask id="mask0_752_74505" style="mask-type:luminance" maskUnits="userSpaceOnUse" x="6" y="6" width="24" height="24">
<g id="clip-path-76">
<path id="Rectangle 17573" d="M30 6H6V30H30V6Z" fill="white"/>
</g>
</mask>
<g mask="url(#mask0_752_74505)">
<g id="Mask Group 587">
<g id="development">
<path id="Path 122709" d="M20.9807 10.2499L21.2085 10.4772C21.2584 10.5296 21.3184 10.5715 21.3847 10.6004C21.4511 10.6294 21.5226 10.6447 21.5949 10.6456C21.6673 10.6465 21.7392 10.6329 21.8062 10.6056C21.8733 10.5783 21.9342 10.5379 21.9854 10.4867C22.0365 10.4355 22.077 10.3746 22.1043 10.3075C22.1316 10.2405 22.1452 10.1686 22.1443 10.0963C22.1434 10.0239 22.128 9.9524 22.0991 9.88604C22.0702 9.81967 22.0283 9.75977 21.9759 9.70984L20.8219 8.55854C20.7201 8.45695 20.5821 8.3999 20.4382 8.3999C20.2944 8.3999 20.1564 8.45695 20.0546 8.55854L18.9011 9.71198C18.7993 9.81374 18.7422 9.95175 18.7422 10.0957C18.7422 10.2396 18.7993 10.3776 18.9011 10.4793C19.0029 10.5811 19.1409 10.6383 19.2848 10.6383C19.4287 10.6383 19.5667 10.5811 19.6685 10.4793L19.8963 10.2521V12.1183C20.279 12.301 20.6425 12.5215 20.9813 12.7766V10.2499H20.9807Z" fill="#FB7F16"/>
<path id="Ellipse 2865" d="M17.1818 18.7519C17.6393 18.7519 18.0102 18.381 18.0102 17.9235C18.0102 17.4661 17.6393 17.0952 17.1818 17.0952C16.7244 17.0952 16.3535 17.4661 16.3535 17.9235C16.3535 18.381 16.7244 18.7519 17.1818 18.7519Z" fill="#FB7F16"/>
<path id="Path 122710" d="M24.9641 21.1858L23.4668 18.619C23.6006 17.5127 23.4413 16.3906 23.0046 15.3654C22.568 14.3401 21.8695 13.4476 20.9792 12.7774V17.9244C20.9789 18.7309 20.7219 19.5164 20.2453 20.167C19.7686 20.8176 19.0972 21.2995 18.3283 21.5429C17.5594 21.7863 16.733 21.7785 15.9688 21.5207C15.2046 21.2629 14.5424 20.7684 14.0781 20.1089C13.6138 19.4495 13.3715 18.6593 13.3865 17.8529C13.4014 17.0466 13.6727 16.2659 14.1611 15.6241C14.6495 14.9823 15.3296 14.5127 16.1029 14.2833C16.8761 14.054 17.7022 14.0768 18.4616 14.3485C18.5307 14.371 18.5945 14.4071 18.6493 14.4547C18.7042 14.5024 18.7489 14.5605 18.7809 14.6257C18.8128 14.6909 18.8314 14.7619 18.8354 14.8344C18.8395 14.9069 18.8289 14.9795 18.8044 15.0478C18.7799 15.1162 18.7419 15.1789 18.6927 15.2323C18.6435 15.2858 18.5841 15.3288 18.5179 15.3588C18.4518 15.3888 18.3803 15.4053 18.3078 15.4072C18.2352 15.4091 18.1629 15.3964 18.0953 15.3699C17.5527 15.1757 16.9624 15.1594 16.4099 15.3233C15.8574 15.4872 15.3715 15.8228 15.0225 16.2814C14.6736 16.74 14.4798 17.2979 14.4691 17.8741C14.4585 18.4502 14.6316 19.0148 14.9634 19.486C15.2952 19.9572 15.7685 20.3104 16.3145 20.4946C16.8606 20.6787 17.4511 20.6842 18.0005 20.5102C18.5499 20.3362 19.0296 19.9918 19.3701 19.5269C19.7105 19.0619 19.8941 18.5006 19.8942 17.9244V12.1181C18.5455 11.4738 17.0129 11.3255 15.5657 11.6992C14.1185 12.0729 12.8494 12.9448 11.9813 14.1616C11.1133 15.3784 10.7019 16.8622 10.8195 18.3522C10.9371 19.8423 11.5762 21.2432 12.6243 22.3087V26.3434C12.6243 26.4868 12.6811 26.6243 12.7822 26.726C12.8833 26.8277 13.0205 26.8853 13.1639 26.8861L18.5055 26.9161H18.5087C18.6524 26.9159 18.7903 26.8588 18.8919 26.7571C18.9936 26.6555 19.0507 26.5176 19.0509 26.3739V25.5717H21.1995C21.5731 25.5715 21.9313 25.423 22.1955 25.1589C22.4598 24.8949 22.6085 24.5368 22.6091 24.1632V22.328H24.3096C24.443 22.3277 24.574 22.2923 24.6895 22.2254C24.8049 22.1584 24.9007 22.0622 24.9671 21.9465C25.0336 21.8308 25.0684 21.6996 25.068 21.5661C25.0677 21.4327 25.0322 21.3017 24.9652 21.1863L24.9641 21.1858ZM17.1814 19.5511C16.8595 19.5511 16.5448 19.4556 16.2771 19.2767C16.0094 19.0979 15.8008 18.8436 15.6776 18.5462C15.5544 18.2488 15.5221 17.9215 15.5849 17.6057C15.6478 17.29 15.8028 16.9999 16.0304 16.7723C16.2581 16.5446 16.5481 16.3896 16.8639 16.3268C17.1796 16.264 17.5069 16.2962 17.8043 16.4194C18.1018 16.5426 18.356 16.7513 18.5349 17.019C18.7137 17.2866 18.8092 17.6013 18.8092 17.9233C18.8088 18.3549 18.6371 18.7687 18.332 19.0738C18.0268 19.379 17.613 19.5506 17.1814 19.5511Z" fill="#FB7F16"/>
</g>
</g>
</g>
</g>
</g>
</svg>
